<svg xmlns="http://www.w3.org/2000/svg" xmlns:xlink="http://www.w3.org/1999/xlink" width="500" zoomAndPan="magnify" viewBox="0 0 375 374.999991" height="500" preserveAspectRatio="xMidYMid meet" version="1.0"><defs><g/><clipPath id="e12cc48de3"><path d="M 78.558594 49.957031 L 296.441406 49.957031 L 296.441406 267.84375 L 78.558594 267.84375 Z M 78.558594 49.957031 " clip-rule="nonzero"/></clipPath><clipPath id="fef6508b13"><path d="M 187.5 49.957031 C 127.332031 49.957031 78.558594 98.734375 78.558594 158.902344 C 78.558594 219.066406 127.332031 267.84375 187.5 267.84375 C 247.667969 267.84375 296.441406 219.066406 296.441406 158.902344 C 296.441406 98.734375 247.667969 49.957031 187.5 49.957031 Z M 187.5 49.957031 " clip-rule="nonzero"/></clipPath><clipPath id="52228199c1"><path d="M 94.761719 66.164062 L 279.203125 66.164062 L 279.203125 250.601562 L 94.761719 250.601562 Z M 94.761719 66.164062 " clip-rule="nonzero"/></clipPath><clipPath id="30b39146a2"><path d="M 186.980469 66.164062 C 136.046875 66.164062 94.761719 107.449219 94.761719 158.382812 C 94.761719 209.3125 136.046875 250.601562 186.980469 250.601562 C 237.914062 250.601562 279.203125 209.3125 279.203125 158.382812 C 279.203125 107.449219 237.914062 66.164062 186.980469 66.164062 Z M 186.980469 66.164062 " clip-rule="nonzero"/></clipPath></defs><g clip-path="url(#e12cc48de3)"><g clip-path="url(#fef6508b13)"><path fill="#fefffe" d="M 78.558594 49.957031 L 296.441406 49.957031 L 296.441406 267.84375 L 78.558594 267.84375 Z M 78.558594 49.957031 " fill-opacity="1" fill-rule="nonzero"/></g></g><g clip-path="url(#52228199c1)"><g clip-path="url(#30b39146a2)"><path fill="#ffffff" d="M 94.761719 66.164062 L 279.203125 66.164062 L 279.203125 250.601562 L 94.761719 250.601562 Z M 94.761719 66.164062 " fill-opacity="1" fill-rule="nonzero"/></g></g><path fill="#000000" d="M 106.351562 187.808594 C 103.929688 183.820312 102.0625 179.234375 100.757812 174.050781 C 99.460938 168.863281 98.808594 163.296875 98.808594 157.355469 C 98.808594 151.410156 99.460938 145.828125 100.757812 140.601562 C 102.0625 135.371094 103.929688 130.804688 106.351562 126.902344 L 110.785156 126.902344 C 108.21875 131.285156 106.339844 135.996094 105.148438 141.03125 C 103.960938 146.058594 103.367188 151.503906 103.367188 157.355469 C 103.367188 163.214844 103.960938 168.660156 105.148438 173.695312 C 106.339844 178.722656 108.21875 183.429688 110.785156 187.808594 Z M 106.351562 187.808594 " fill-opacity="1" fill-rule="nonzero"/><path fill="#000000" d="M 119.964844 155.199219 L 119.964844 168.734375 L 116.691406 168.734375 L 116.691406 151.957031 L 146.96875 151.957031 L 146.96875 155.199219 Z M 119.964844 155.199219 " fill-opacity="1" fill-rule="nonzero"/><path fill="#000000" d="M 157.042969 145.316406 L 182.289062 145.316406 L 182.289062 170.566406 L 157.042969 170.566406 Z M 157.042969 145.316406 " fill-opacity="1" fill-rule="nonzero"/><path fill="#000000" d="M 189.1875 175.183594 L 221.71875 175.183594 L 221.71875 178.308594 L 189.1875 178.308594 Z M 189.1875 175.183594 " fill-opacity="1" fill-rule="nonzero"/><path fill="#000000" d="M 228.617188 145.316406 L 253.867188 145.316406 L 253.867188 170.566406 L 228.617188 170.566406 Z M 228.617188 145.316406 " fill-opacity="1" fill-rule="nonzero"/><path fill="#000000" d="M 263.363281 187.808594 C 265.925781 183.429688 267.8125 178.734375 269.03125 173.726562 C 270.246094 168.714844 270.851562 163.257812 270.851562 157.355469 C 270.851562 151.453125 270.246094 146 269.03125 140.992188 C 267.8125 135.980469 265.925781 131.285156 263.363281 126.902344 L 267.792969 126.902344 C 270.222656 130.804688 272.097656 135.371094 273.421875 140.601562 C 274.742188 145.828125 275.402344 151.410156 275.402344 157.355469 C 275.402344 163.296875 274.753906 168.875 273.453125 174.082031 C 272.152344 179.285156 270.265625 183.863281 267.792969 187.808594 Z M 263.363281 187.808594 " fill-opacity="1" fill-rule="nonzero"/><g fill="#ffffff" fill-opacity="1"><g transform="translate(97.516112, 335.599824)"><g><path d="M 22.703125 -32.9375 L 14.90625 -32.78125 C 14.90625 -34.90625 14.90625 -37.125 14.90625 -39.25 C 15 -40.5625 15 -41.875 15.078125 -42.9375 C 15.15625 -44.078125 15.328125 -45.0625 15.65625 -45.890625 C 15.890625 -46.625 16.3125 -47.359375 16.71875 -47.6875 C 16.875 -47.84375 17.046875 -48.015625 17.203125 -48.015625 C 17.28125 -48.09375 17.375 -48.09375 17.53125 -48.09375 C 17.703125 -48.09375 18.1875 -48.015625 18.765625 -47.53125 C 19.015625 -47.359375 19.25 -47.109375 19.5 -46.78125 C 19.578125 -46.703125 19.75 -46.546875 19.828125 -46.375 C 19.90625 -46.296875 19.90625 -46.21875 19.90625 -46.125 L 20 -46.046875 L 20.078125 -45.890625 C 20.5625 -44.90625 20.8125 -44.078125 20.96875 -43.1875 C 21.140625 -42.28125 21.21875 -41.125 21.21875 -39.828125 L 29.09375 -39.984375 C 29.09375 -41.296875 29.09375 -42.859375 28.765625 -44.484375 C 28.59375 -45.390625 28.4375 -46.21875 28.109375 -47.03125 C 27.859375 -47.84375 27.53125 -48.59375 27.125 -49.328125 L 27.046875 -49.578125 L 26.875 -49.90625 C 26.71875 -50.140625 26.625 -50.390625 26.46875 -50.5625 C 26.21875 -50.96875 25.96875 -51.375 25.640625 -51.703125 C 25.078125 -52.515625 24.328125 -53.171875 23.59375 -53.75 C 22.78125 -54.40625 21.875 -54.890625 20.890625 -55.3125 C 19.90625 -55.71875 18.765625 -55.96875 17.53125 -55.96875 C 16.3125 -55.96875 15.078125 -55.71875 14.015625 -55.21875 C 12.953125 -54.734375 11.96875 -54.078125 11.21875 -53.34375 C 10.484375 -52.609375 9.828125 -51.859375 9.34375 -51.046875 C 8.84375 -50.234375 8.4375 -49.328125 8.1875 -48.421875 C 7.625 -46.78125 7.375 -45.140625 7.203125 -43.59375 C 7.125 -42.109375 7.125 -40.71875 7.046875 -39.40625 C 7.046875 -37.125 7.046875 -34.90625 7.046875 -32.609375 L 3.28125 -32.53125 L 3.4375 -24.65625 L 7.125 -24.75 C 7.375 -18.84375 7.703125 -13.03125 8.28125 -7.203125 L 16.0625 -7.953125 C 15.5625 -13.609375 15.234375 -19.25 15 -24.90625 L 22.9375 -25.078125 Z M 22.703125 -32.9375 "/></g></g></g><g fill="#ffffff" fill-opacity="1"><g transform="translate(128.815232, 335.599824)"><g><path d="M 22.453125 -39.578125 C 20.15625 -39.5 17.9375 -39 15.734375 -38.1875 C 14.671875 -37.765625 13.515625 -37.203125 12.53125 -36.625 C 12.046875 -36.296875 11.640625 -36.046875 11.21875 -35.71875 C 11.140625 -36.875 11.140625 -38.09375 11.140625 -39.328125 L 3.28125 -39.171875 C 3.4375 -28.921875 3.84375 -18.59375 4.34375 -8.359375 L 12.203125 -8.765625 C 12.046875 -13.03125 11.796875 -17.28125 11.640625 -21.46875 L 11.71875 -21.46875 C 11.71875 -22.859375 11.96875 -24.171875 12.53125 -25.3125 C 13.109375 -26.546875 13.921875 -27.6875 15 -28.671875 L 15.8125 -29.328125 C 16.0625 -29.5 16.390625 -29.75 16.640625 -29.90625 C 17.28125 -30.234375 17.859375 -30.5625 18.515625 -30.8125 C 19.90625 -31.375 21.390625 -31.625 22.859375 -31.703125 Z M 22.453125 -39.578125 "/></g></g></g><g fill="#ffffff" fill-opacity="1"><g transform="translate(155.034394, 335.599824)"><g><path d="M 20.5625 -17.859375 C 20.484375 -17.53125 20.328125 -17.203125 20.078125 -16.875 C 19.90625 -16.640625 19.671875 -16.390625 19.5 -16.140625 C 19.25 -15.984375 19.09375 -15.8125 18.921875 -15.8125 C 18.921875 -15.734375 18.84375 -15.734375 18.765625 -15.734375 L 18.59375 -15.65625 L 18.359375 -15.5625 C 18.1875 -15.5625 18.109375 -15.484375 18.03125 -15.484375 L 17.703125 -15.40625 C 17.375 -15.328125 16.96875 -15.328125 16.640625 -15.328125 C 15.890625 -15.328125 15.15625 -15.484375 14.5 -15.890625 C 13.765625 -16.21875 13.109375 -16.796875 12.625 -17.453125 C 12.046875 -18.03125 11.640625 -18.84375 11.390625 -19.578125 C 11.3125 -19.75 11.3125 -19.90625 11.3125 -20.078125 L 11.21875 -20.15625 C 11.21875 -20.234375 11.21875 -20.328125 11.21875 -20.40625 C 11.21875 -20.484375 11.21875 -20.640625 11.140625 -20.8125 C 11.140625 -20.96875 11.140625 -21.140625 11.140625 -21.296875 C 14.5 -21.546875 17.859375 -21.796875 21.21875 -21.953125 L 29.09375 -22.203125 C 29.09375 -23.03125 29 -23.765625 28.921875 -24.578125 C 28.84375 -25.3125 28.671875 -26.0625 28.59375 -26.796875 C 28.265625 -28.1875 27.9375 -29.65625 27.453125 -31.21875 C 27.203125 -31.953125 26.875 -32.78125 26.46875 -33.671875 C 26.296875 -33.84375 26.21875 -34.09375 26.0625 -34.328125 L 25.8125 -34.65625 L 25.734375 -34.828125 L 25.640625 -34.984375 C 25.3125 -35.3125 25.078125 -35.71875 24.75 -36.046875 C 24.171875 -36.796875 23.4375 -37.453125 22.53125 -38.015625 C 21.625 -38.671875 20.640625 -39.171875 19.578125 -39.40625 C 17.375 -40.0625 15.328125 -39.90625 13.4375 -39.328125 C 12.453125 -39.078125 11.546875 -38.671875 10.65625 -38.1875 C 9.75 -37.609375 9.015625 -37.03125 8.359375 -36.296875 C 6.96875 -34.90625 5.984375 -33.34375 5.328125 -31.796875 C 4.671875 -30.3125 4.09375 -28.84375 3.765625 -27.203125 C 3.4375 -25.640625 3.28125 -24 3.28125 -22.453125 C 3.203125 -21.625 3.28125 -20.8125 3.359375 -20 C 3.359375 -19.75 3.359375 -19.578125 3.4375 -19.421875 C 3.4375 -19.25 3.4375 -19.171875 3.4375 -19.09375 L 3.515625 -18.6875 C 3.609375 -18.1875 3.6875 -17.703125 3.84375 -17.28125 C 4.421875 -15.40625 5.328125 -13.765625 6.5625 -12.375 C 7.703125 -10.984375 9.171875 -9.75 10.8125 -8.84375 C 12.53125 -8.03125 14.5 -7.453125 16.46875 -7.453125 C 17.375 -7.453125 18.359375 -7.53125 19.34375 -7.703125 L 20 -7.859375 C 20.234375 -7.953125 20.40625 -8.03125 20.640625 -8.03125 L 21.296875 -8.28125 L 21.625 -8.4375 C 21.71875 -8.4375 21.875 -8.4375 21.953125 -8.515625 C 23.03125 -9.015625 24 -9.671875 24.75 -10.328125 C 25.5625 -11.0625 26.21875 -11.796875 26.71875 -12.625 C 27.203125 -13.515625 27.6875 -14.34375 28.015625 -15.234375 C 28.34375 -16.21875 28.59375 -17.203125 28.59375 -18.359375 L 20.8125 -18.765625 C 20.734375 -18.59375 20.734375 -18.1875 20.5625 -17.859375 Z M 13.84375 -30.734375 C 14.09375 -30.96875 14.421875 -31.21875 14.671875 -31.375 C 15 -31.546875 15.328125 -31.703125 15.65625 -31.796875 C 16.3125 -31.953125 17.046875 -31.953125 17.453125 -31.875 C 17.859375 -31.703125 18.265625 -31.46875 18.84375 -30.890625 C 19.015625 -30.734375 19.09375 -30.5625 19.25 -30.40625 L 19.34375 -30.3125 C 19.34375 -30.234375 19.34375 -30.234375 19.34375 -30.234375 C 19.34375 -30.234375 19.34375 -30.234375 19.34375 -30.15625 C 19.421875 -30.15625 19.421875 -30.078125 19.5 -29.984375 C 19.671875 -29.65625 19.828125 -29.25 20 -28.671875 C 20 -28.671875 20 -28.671875 20 -28.59375 C 17.453125 -28.515625 14.828125 -28.34375 12.296875 -28.1875 C 12.375 -28.265625 12.375 -28.4375 12.453125 -28.59375 C 12.859375 -29.5 13.359375 -30.234375 13.84375 -30.734375 Z M 13.84375 -30.734375 "/></g></g></g><g fill="#ffffff" fill-opacity="1"><g transform="translate(187.480614, 335.599824)"><g><path d="M 28.015625 -23.109375 C 27.9375 -24.421875 27.859375 -25.734375 27.6875 -27.125 C 27.6875 -27.78125 27.609375 -28.4375 27.53125 -29.09375 L 27.359375 -30.078125 L 27.359375 -30.5625 L 27.28125 -31.140625 C 27.046875 -32.609375 26.71875 -34.171875 25.96875 -35.8125 C 25.640625 -36.546875 25.234375 -37.453125 24.65625 -38.1875 C 24.09375 -39 23.4375 -39.828125 22.53125 -40.484375 C 22.046875 -40.8125 21.625 -41.046875 21.140625 -41.296875 C 20.640625 -41.546875 20 -41.78125 19.421875 -41.953125 C 18.1875 -42.28125 16.96875 -42.28125 15.890625 -42.109375 C 14.75 -41.953125 13.765625 -41.546875 12.859375 -41.046875 C 12.375 -40.8125 11.96875 -40.5625 11.546875 -40.234375 C 11.46875 -40.15625 11.390625 -40.0625 11.3125 -40.0625 C 11.3125 -40.96875 11.3125 -41.875 11.3125 -42.765625 L 3.4375 -42.765625 C 3.4375 -31.796875 3.609375 -20.890625 3.28125 -10.078125 L 11.140625 -9.828125 C 11.140625 -11.3125 11.21875 -12.703125 11.21875 -14.171875 C 11.546875 -18.921875 12.53125 -23.6875 13.84375 -28.515625 L 14.34375 -30.3125 C 14.5 -30.8125 14.671875 -31.296875 14.828125 -31.703125 C 15.15625 -32.609375 15.5625 -33.265625 16.0625 -33.671875 C 16.140625 -33.84375 16.21875 -33.84375 16.3125 -33.921875 C 16.390625 -34 16.46875 -34.09375 16.640625 -34.171875 C 16.796875 -34.25 17.046875 -34.328125 17.203125 -34.328125 C 17.375 -34.328125 17.453125 -34.328125 17.453125 -34.328125 C 17.453125 -34.328125 17.609375 -34.25 17.78125 -34.171875 C 18.03125 -33.921875 18.4375 -33.4375 18.765625 -32.6875 C 19.09375 -31.953125 19.34375 -30.96875 19.5 -29.984375 L 19.5 -29.578125 L 19.578125 -29.09375 L 19.671875 -28.1875 C 19.75 -27.609375 19.828125 -26.953125 19.90625 -26.390625 C 20 -25.15625 20.078125 -23.921875 20.15625 -22.609375 C 20.484375 -17.703125 20.484375 -12.625 20.640625 -7.453125 L 28.515625 -7.625 C 28.34375 -12.703125 28.34375 -17.859375 28.015625 -23.109375 Z M 28.015625 -23.109375 "/></g></g></g><g fill="#ffffff" fill-opacity="1"><g transform="translate(219.353276, 335.599824)"><g><path d="M 11.140625 -14.90625 C 9.75 -16.875 7.046875 -17.375 5.078125 -16.0625 C 3.109375 -14.671875 2.625 -11.96875 4.015625 -10 C 5.328125 -8.03125 8.03125 -7.53125 10 -8.9375 C 11.96875 -10.25 12.453125 -12.953125 11.140625 -14.90625 Z M 11.140625 -14.90625 "/></g></g></g><g fill="#ffffff" fill-opacity="1"><g transform="translate(234.593168, 335.599824)"><g><path d="M 23.1875 -20.234375 C 23.1875 -20.328125 23.1875 -20.484375 23.1875 -20.5625 C 23.109375 -22.53125 23.03125 -24.5 22.9375 -26.46875 C 22.859375 -27.53125 22.78125 -28.515625 22.703125 -29.578125 C 22.609375 -30.640625 22.53125 -31.703125 22.453125 -32.859375 C 22.28125 -34 22.046875 -35.234375 21.625 -36.546875 C 21.21875 -37.765625 20.640625 -39.078125 19.75 -40.3125 C 19.34375 -40.96875 18.84375 -41.546875 18.1875 -42.109375 C 17.609375 -42.6875 16.875 -43.1875 16.0625 -43.59375 C 14.578125 -44.328125 12.78125 -44.734375 10.984375 -44.578125 C 9.171875 -44.484375 7.453125 -43.75 6.0625 -42.609375 C 5.40625 -42.03125 4.828125 -41.453125 4.34375 -40.71875 L 4.171875 -40.484375 L 4.015625 -40.3125 L 3.765625 -39.984375 C 3.609375 -39.734375 3.515625 -39.5 3.28125 -39.25 C 2.953125 -38.671875 2.546875 -37.9375 2.296875 -37.125 C 1.96875 -36.21875 1.796875 -35.390625 1.796875 -34.734375 C 1.640625 -33.4375 1.640625 -32.359375 1.640625 -31.375 L 9.5 -31.140625 C 9.5 -32.125 9.5 -33.1875 9.59375 -33.921875 C 9.671875 -34.25 9.671875 -34.40625 9.671875 -34.5 C 9.75 -34.578125 9.828125 -34.734375 10 -35.0625 L 10.328125 -35.640625 L 10.5625 -35.96875 C 10.5625 -35.96875 10.65625 -36.046875 10.65625 -36.046875 L 10.734375 -36.140625 C 10.8125 -36.296875 10.890625 -36.375 11.0625 -36.46875 C 11.140625 -36.546875 11.21875 -36.625 11.390625 -36.703125 C 11.46875 -36.703125 11.546875 -36.796875 11.71875 -36.796875 C 11.96875 -36.796875 12.203125 -36.703125 12.53125 -36.546875 C 12.703125 -36.46875 13.03125 -36.21875 13.359375 -35.8125 C 13.609375 -35.390625 13.921875 -34.828125 14.09375 -34.09375 C 14.34375 -33.4375 14.5 -32.6875 14.578125 -31.796875 C 14.75 -31.046875 14.75 -30.3125 14.828125 -29.5 C 13.921875 -29.65625 13.03125 -29.75 12.125 -29.65625 C 9.59375 -29.421875 7.296875 -28.59375 5.25 -26.875 C 4.75 -26.390625 4.265625 -25.890625 3.84375 -25.40625 C 3.4375 -24.90625 3.109375 -24.328125 2.78125 -23.765625 C 2.21875 -22.609375 1.796875 -21.296875 1.640625 -20 C 1.5625 -18.6875 1.640625 -17.203125 2.046875 -15.890625 C 2.546875 -14.5 3.28125 -13.28125 4.171875 -12.296875 C 5.984375 -10.328125 8.4375 -9.171875 11.0625 -8.84375 C 11.390625 -8.84375 11.71875 -8.84375 12.125 -8.84375 C 12.453125 -8.84375 12.703125 -8.84375 13.03125 -8.84375 C 13.609375 -8.9375 14.171875 -9.015625 14.75 -9.09375 C 14.90625 -9.171875 15.15625 -9.171875 15.328125 -9.265625 C 15.328125 -8.84375 15.328125 -8.4375 15.234375 -8.03125 L 23.109375 -7.78125 C 23.265625 -11.96875 23.265625 -16.0625 23.1875 -20.234375 Z M 14.25 -17.28125 C 13.921875 -17.046875 13.609375 -16.875 13.109375 -16.796875 C 12.859375 -16.796875 12.625 -16.71875 12.375 -16.71875 C 12.296875 -16.71875 12.125 -16.71875 12.046875 -16.71875 C 11.96875 -16.71875 11.875 -16.71875 11.796875 -16.71875 C 11.140625 -16.796875 10.40625 -17.125 10 -17.609375 C 9.75 -17.859375 9.671875 -18.109375 9.59375 -18.265625 C 9.5 -18.515625 9.421875 -18.84375 9.5 -19.171875 C 9.59375 -19.75 9.921875 -20.484375 10.40625 -20.890625 C 10.984375 -21.390625 11.796875 -21.71875 12.625 -21.796875 C 13.109375 -21.796875 13.4375 -21.796875 13.765625 -21.71875 C 14.09375 -21.625 14.421875 -21.46875 14.578125 -21.296875 C 14.90625 -21.0625 15.234375 -20.484375 15.328125 -20.078125 C 15.328125 -20.078125 15.328125 -20 15.328125 -20 C 15.328125 -19.5 15.328125 -19.015625 15.328125 -18.4375 C 15.234375 -18.1875 15.15625 -18.03125 15 -17.859375 C 14.828125 -17.609375 14.578125 -17.453125 14.25 -17.28125 Z M 14.25 -17.28125 "/></g></g></g><g fill="#ffffff" fill-opacity="1"><g transform="translate(261.385871, 335.599824)"><g><path d="M 11.71875 -31.875 L 3.84375 -31.796875 C 3.9375 -24.25 4.265625 -16.71875 4.75 -9.171875 L 12.625 -9.671875 C 12.125 -17.125 11.796875 -24.5 11.71875 -31.875 Z M 7.78125 -35.96875 C 10.15625 -36.046875 12.125 -38.09375 12.046875 -40.5625 C 11.96875 -42.9375 9.921875 -44.8125 7.453125 -44.8125 C 5.078125 -44.734375 3.203125 -42.6875 3.28125 -40.234375 C 3.28125 -37.859375 5.328125 -35.890625 7.78125 -35.96875 Z M 7.78125 -35.96875 "/></g></g></g></svg>