<svg xmlns="http://www.w3.org/2000/svg" xmlns:xlink="http://www.w3.org/1999/xlink" width="500" zoomAndPan="magnify" viewBox="0 0 375 374.999991" height="500" preserveAspectRatio="xMidYMid meet" version="1.0"><defs><clipPath id="9e2e19566a"><path d="M 200 36 L 359 36 L 359 339.886719 L 200 339.886719 Z M 200 36 " clip-rule="nonzero"/></clipPath><clipPath id="ddc8fbabbc"><path d="M 15 36 L 168 36 L 168 339.886719 L 15 339.886719 Z M 15 36 " clip-rule="nonzero"/></clipPath></defs><path fill="#ced3da" d="M 167.269531 187.917969 C 167.269531 189.023438 167.21875 190.125 167.109375 191.222656 C 167 192.320312 166.839844 193.414062 166.625 194.496094 C 166.40625 195.578125 166.140625 196.648438 165.820312 197.703125 C 165.5 198.761719 165.128906 199.796875 164.707031 200.816406 C 164.28125 201.839844 163.8125 202.835938 163.289062 203.808594 C 162.769531 204.78125 162.203125 205.726562 161.589844 206.644531 C 160.976562 207.5625 160.320312 208.449219 159.621094 209.304688 C 158.917969 210.15625 158.179688 210.972656 157.398438 211.753906 C 156.617188 212.535156 155.800781 213.273438 154.945312 213.976562 C 154.09375 214.675781 153.207031 215.332031 152.289062 215.945312 C 151.371094 216.558594 150.425781 217.125 149.453125 217.648438 C 148.480469 218.167969 147.480469 218.640625 146.460938 219.0625 C 145.441406 219.484375 144.402344 219.855469 143.347656 220.175781 C 142.292969 220.496094 141.222656 220.765625 140.140625 220.980469 C 139.054688 221.195312 137.964844 221.355469 136.867188 221.464844 C 135.769531 221.574219 134.667969 221.628906 133.5625 221.628906 C 132.457031 221.628906 131.355469 221.574219 130.257812 221.464844 C 129.160156 221.355469 128.070312 221.195312 126.988281 220.980469 C 125.902344 220.765625 124.832031 220.496094 123.777344 220.175781 C 122.722656 219.855469 121.683594 219.484375 120.664062 219.0625 C 119.644531 218.640625 118.644531 218.167969 117.671875 217.648438 C 116.699219 217.125 115.753906 216.558594 114.835938 215.945312 C 113.917969 215.332031 113.03125 214.675781 112.179688 213.976562 C 111.324219 213.273438 110.507812 212.535156 109.726562 211.753906 C 108.945312 210.972656 108.207031 210.15625 107.503906 209.304688 C 106.804688 208.449219 106.148438 207.5625 105.535156 206.644531 C 104.921875 205.726562 104.355469 204.78125 103.835938 203.808594 C 103.3125 202.835938 102.84375 201.839844 102.421875 200.816406 C 101.996094 199.796875 101.625 198.761719 101.304688 197.703125 C 100.984375 196.648438 100.71875 195.578125 100.5 194.496094 C 100.285156 193.414062 100.125 192.320312 100.015625 191.222656 C 99.910156 190.125 99.855469 189.023438 99.855469 187.917969 C 99.855469 186.816406 99.910156 185.714844 100.015625 184.613281 C 100.125 183.515625 100.285156 182.425781 100.5 181.34375 C 100.71875 180.257812 100.984375 179.191406 101.304688 178.132812 C 101.625 177.078125 101.996094 176.039062 102.421875 175.019531 C 102.84375 174 103.3125 173.003906 103.835938 172.027344 C 104.355469 171.054688 104.921875 170.109375 105.535156 169.191406 C 106.148438 168.273438 106.804688 167.386719 107.503906 166.535156 C 108.207031 165.679688 108.945312 164.863281 109.726562 164.082031 C 110.507812 163.300781 111.324219 162.5625 112.179688 161.863281 C 113.03125 161.160156 113.917969 160.503906 114.835938 159.890625 C 115.753906 159.277344 116.699219 158.710938 117.671875 158.191406 C 118.644531 157.671875 119.644531 157.199219 120.664062 156.777344 C 121.683594 156.355469 122.722656 155.980469 123.777344 155.660156 C 124.832031 155.339844 125.902344 155.074219 126.988281 154.859375 C 128.070312 154.640625 129.160156 154.480469 130.257812 154.371094 C 131.355469 154.265625 132.457031 154.210938 133.5625 154.210938 C 134.667969 154.210938 135.769531 154.265625 136.867188 154.371094 C 137.964844 154.480469 139.054688 154.640625 140.140625 154.859375 C 141.222656 155.074219 142.292969 155.339844 143.347656 155.660156 C 144.402344 155.980469 145.441406 156.355469 146.460938 156.777344 C 147.480469 157.199219 148.480469 157.671875 149.453125 158.191406 C 150.425781 158.710938 151.371094 159.277344 152.289062 159.890625 C 153.207031 160.503906 154.09375 161.160156 154.945312 161.863281 C 155.800781 162.5625 156.617188 163.300781 157.398438 164.082031 C 158.179688 164.863281 158.917969 165.679688 159.621094 166.535156 C 160.320312 167.386719 160.976562 168.273438 161.589844 169.191406 C 162.203125 170.109375 162.769531 171.054688 163.289062 172.027344 C 163.8125 173.003906 164.28125 174 164.707031 175.019531 C 165.128906 176.039062 165.5 177.078125 165.820312 178.132812 C 166.140625 179.191406 166.40625 180.257812 166.625 181.34375 C 166.839844 182.425781 167 183.515625 167.109375 184.613281 C 167.21875 185.714844 167.269531 186.816406 167.269531 187.917969 Z M 167.269531 187.917969 " fill-opacity="1" fill-rule="nonzero"/><path fill="#ced3da" d="M 268.394531 187.917969 C 268.394531 189.023438 268.34375 190.125 268.234375 191.222656 C 268.125 192.320312 267.964844 193.414062 267.75 194.496094 C 267.535156 195.578125 267.265625 196.648438 266.945312 197.703125 C 266.625 198.761719 266.253906 199.796875 265.832031 200.816406 C 265.40625 201.839844 264.9375 202.835938 264.417969 203.808594 C 263.894531 204.78125 263.328125 205.726562 262.714844 206.644531 C 262.101562 207.5625 261.445312 208.449219 260.746094 209.304688 C 260.042969 210.15625 259.304688 210.972656 258.523438 211.753906 C 257.742188 212.535156 256.925781 213.273438 256.074219 213.976562 C 255.21875 214.675781 254.332031 215.332031 253.414062 215.945312 C 252.496094 216.558594 251.550781 217.125 250.578125 217.648438 C 249.605469 218.167969 248.609375 218.640625 247.585938 219.0625 C 246.566406 219.484375 245.53125 219.855469 244.472656 220.175781 C 243.417969 220.496094 242.347656 220.765625 241.265625 220.980469 C 240.179688 221.195312 239.089844 221.355469 237.992188 221.464844 C 236.894531 221.574219 235.792969 221.628906 234.6875 221.628906 C 233.582031 221.628906 232.484375 221.574219 231.382812 221.464844 C 230.285156 221.355469 229.195312 221.195312 228.113281 220.980469 C 227.027344 220.765625 225.960938 220.496094 224.902344 220.175781 C 223.847656 219.855469 222.808594 219.484375 221.789062 219.0625 C 220.769531 218.640625 219.769531 218.167969 218.796875 217.648438 C 217.824219 217.125 216.878906 216.558594 215.960938 215.945312 C 215.042969 215.332031 214.15625 214.675781 213.304688 213.976562 C 212.449219 213.273438 211.632812 212.535156 210.851562 211.753906 C 210.070312 210.972656 209.332031 210.15625 208.632812 209.304688 C 207.929688 208.449219 207.273438 207.5625 206.660156 206.644531 C 206.046875 205.726562 205.480469 204.78125 204.960938 203.808594 C 204.4375 202.835938 203.96875 201.839844 203.546875 200.816406 C 203.121094 199.796875 202.75 198.761719 202.429688 197.703125 C 202.109375 196.648438 201.84375 195.578125 201.628906 194.496094 C 201.410156 193.414062 201.25 192.320312 201.140625 191.222656 C 201.035156 190.125 200.980469 189.023438 200.980469 187.917969 C 200.980469 186.816406 201.035156 185.714844 201.140625 184.613281 C 201.25 183.515625 201.410156 182.425781 201.628906 181.34375 C 201.84375 180.257812 202.109375 179.191406 202.429688 178.132812 C 202.75 177.078125 203.121094 176.039062 203.546875 175.019531 C 203.96875 174 204.4375 173.003906 204.960938 172.027344 C 205.480469 171.054688 206.046875 170.109375 206.660156 169.191406 C 207.273438 168.273438 207.929688 167.386719 208.632812 166.535156 C 209.332031 165.679688 210.070312 164.863281 210.851562 164.082031 C 211.632812 163.300781 212.449219 162.5625 213.304688 161.863281 C 214.15625 161.160156 215.042969 160.503906 215.960938 159.890625 C 216.878906 159.277344 217.824219 158.710938 218.796875 158.191406 C 219.769531 157.671875 220.769531 157.199219 221.789062 156.777344 C 222.808594 156.355469 223.847656 155.980469 224.902344 155.660156 C 225.960938 155.339844 227.027344 155.074219 228.113281 154.859375 C 229.195312 154.640625 230.285156 154.480469 231.382812 154.371094 C 232.484375 154.265625 233.582031 154.210938 234.6875 154.210938 C 235.792969 154.210938 236.894531 154.265625 237.992188 154.371094 C 239.089844 154.480469 240.179688 154.640625 241.265625 154.859375 C 242.347656 155.074219 243.417969 155.339844 244.472656 155.660156 C 245.53125 155.980469 246.566406 156.355469 247.585938 156.777344 C 248.609375 157.199219 249.605469 157.671875 250.578125 158.191406 C 251.550781 158.710938 252.496094 159.277344 253.414062 159.890625 C 254.332031 160.503906 255.21875 161.160156 256.074219 161.863281 C 256.925781 162.5625 257.742188 163.300781 258.523438 164.082031 C 259.304688 164.863281 260.042969 165.679688 260.746094 166.535156 C 261.445312 167.386719 262.101562 168.273438 262.714844 169.191406 C 263.328125 170.109375 263.894531 171.054688 264.417969 172.027344 C 264.9375 173.003906 265.40625 174 265.832031 175.019531 C 266.253906 176.039062 266.625 177.078125 266.945312 178.132812 C 267.265625 179.191406 267.535156 180.257812 267.75 181.34375 C 267.964844 182.425781 268.125 183.515625 268.234375 184.613281 C 268.34375 185.714844 268.394531 186.816406 268.394531 187.917969 Z M 268.394531 187.917969 " fill-opacity="1" fill-rule="nonzero"/><path fill="#ced3da" d="M 259.96875 128.929688 C 258.394531 128.933594 256.847656 128.714844 255.335938 128.28125 C 199.421875 112.269531 168.8125 112.269531 112.917969 128.28125 C 112.386719 128.433594 111.847656 128.558594 111.304688 128.65625 C 110.761719 128.753906 110.214844 128.828125 109.664062 128.871094 C 109.117188 128.917969 108.5625 128.9375 108.011719 128.925781 C 107.460938 128.917969 106.910156 128.882812 106.363281 128.820312 C 105.8125 128.757812 105.269531 128.667969 104.730469 128.550781 C 104.191406 128.433594 103.65625 128.292969 103.132812 128.125 C 102.605469 127.957031 102.089844 127.761719 101.582031 127.542969 C 101.078125 127.324219 100.582031 127.078125 100.101562 126.8125 C 99.617188 126.542969 99.148438 126.253906 98.695312 125.9375 C 98.242188 125.625 97.804688 125.289062 97.382812 124.933594 C 96.960938 124.574219 96.558594 124.199219 96.175781 123.800781 C 95.789062 123.40625 95.425781 122.992188 95.082031 122.558594 C 94.738281 122.125 94.417969 121.679688 94.121094 121.214844 C 93.820312 120.75 93.542969 120.273438 93.292969 119.78125 C 93.039062 119.292969 92.8125 118.789062 92.609375 118.277344 C 92.40625 117.761719 92.226562 117.242188 92.074219 116.710938 C 91.925781 116.179688 91.796875 115.640625 91.699219 115.097656 C 91.601562 114.554688 91.527344 114.007812 91.484375 113.460938 C 91.4375 112.910156 91.417969 112.359375 91.429688 111.804688 C 91.4375 111.253906 91.472656 110.703125 91.535156 110.15625 C 91.597656 109.605469 91.6875 109.0625 91.804688 108.523438 C 91.921875 107.984375 92.0625 107.449219 92.230469 106.925781 C 92.402344 106.398438 92.59375 105.882812 92.8125 105.378906 C 93.035156 104.871094 93.277344 104.375 93.546875 103.894531 C 93.8125 103.410156 94.105469 102.941406 94.417969 102.488281 C 94.730469 102.035156 95.066406 101.597656 95.425781 101.175781 C 95.78125 100.753906 96.15625 100.351562 96.554688 99.96875 C 96.949219 99.582031 97.367188 99.21875 97.796875 98.875 C 98.230469 98.535156 98.679688 98.210938 99.140625 97.914062 C 99.605469 97.613281 100.082031 97.335938 100.574219 97.085938 C 101.066406 96.832031 101.566406 96.605469 102.082031 96.402344 C 102.59375 96.199219 103.117188 96.019531 103.644531 95.871094 C 165.316406 78.238281 202.917969 78.238281 264.605469 95.871094 C 265.574219 96.144531 266.511719 96.507812 267.414062 96.953125 C 268.320312 97.398438 269.175781 97.917969 269.988281 98.519531 C 270.796875 99.117188 271.550781 99.785156 272.242188 100.519531 C 272.933594 101.253906 273.550781 102.042969 274.101562 102.886719 C 274.652344 103.730469 275.121094 104.621094 275.511719 105.546875 C 275.902344 106.476562 276.207031 107.433594 276.425781 108.417969 C 276.644531 109.402344 276.773438 110.398438 276.8125 111.40625 C 276.851562 112.414062 276.804688 113.417969 276.664062 114.414062 C 276.523438 115.414062 276.296875 116.390625 275.980469 117.347656 C 275.664062 118.304688 275.265625 119.226562 274.785156 120.113281 C 274.304688 121 273.75 121.835938 273.117188 122.621094 C 272.488281 123.410156 271.792969 124.132812 271.03125 124.792969 C 270.269531 125.457031 269.457031 126.042969 268.589844 126.558594 C 267.722656 127.074219 266.816406 127.507812 265.875 127.863281 C 264.929688 128.214844 263.960938 128.480469 262.96875 128.660156 C 261.976562 128.839844 260.976562 128.929688 259.96875 128.929688 Z M 259.96875 128.929688 " fill-opacity="1" fill-rule="nonzero"/><path fill="#ced3da" d="M 184.125 293.324219 C 169.066406 293.203125 154.09375 292.023438 139.203125 289.785156 C 124.3125 287.550781 109.65625 284.277344 95.226562 279.96875 C 94.695312 279.816406 94.175781 279.640625 93.660156 279.4375 C 93.148438 279.234375 92.644531 279.003906 92.15625 278.753906 C 91.664062 278.5 91.1875 278.222656 90.722656 277.925781 C 90.257812 277.625 89.8125 277.304688 89.378906 276.960938 C 88.945312 276.617188 88.53125 276.253906 88.136719 275.871094 C 87.738281 275.484375 87.363281 275.082031 87.003906 274.660156 C 86.648438 274.242188 86.3125 273.804688 86 273.347656 C 85.683594 272.894531 85.394531 272.425781 85.125 271.945312 C 84.859375 271.460938 84.613281 270.96875 84.394531 270.460938 C 84.175781 269.953125 83.980469 269.4375 83.8125 268.914062 C 83.644531 268.386719 83.503906 267.855469 83.386719 267.3125 C 83.269531 266.773438 83.179688 266.230469 83.117188 265.683594 C 83.054688 265.132812 83.019531 264.582031 83.007812 264.03125 C 83 263.480469 83.019531 262.929688 83.0625 262.378906 C 83.109375 261.828125 83.183594 261.28125 83.28125 260.738281 C 83.378906 260.195312 83.503906 259.660156 83.65625 259.128906 C 83.808594 258.597656 83.988281 258.074219 84.191406 257.5625 C 84.394531 257.046875 84.621094 256.546875 84.871094 256.054688 C 85.125 255.5625 85.402344 255.085938 85.699219 254.625 C 86 254.160156 86.320312 253.710938 86.664062 253.277344 C 87.007812 252.847656 87.371094 252.433594 87.753906 252.035156 C 88.140625 251.640625 88.542969 251.261719 88.964844 250.90625 C 89.382812 250.546875 89.820312 250.214844 90.277344 249.898438 C 90.730469 249.585938 91.199219 249.292969 91.679688 249.027344 C 92.164062 248.757812 92.660156 248.515625 93.164062 248.296875 C 93.671875 248.074219 94.1875 247.882812 94.714844 247.714844 C 95.238281 247.542969 95.769531 247.402344 96.3125 247.285156 C 96.851562 247.167969 97.394531 247.078125 97.941406 247.015625 C 98.492188 246.953125 99.042969 246.917969 99.59375 246.910156 C 100.144531 246.902344 100.695312 246.917969 101.246094 246.964844 C 101.796875 247.011719 102.34375 247.082031 102.886719 247.179688 C 103.429688 247.28125 103.964844 247.40625 104.496094 247.558594 C 110.9375 249.535156 117.445312 251.273438 124.015625 252.769531 C 130.585938 254.261719 137.203125 255.511719 143.867188 256.511719 C 150.53125 257.511719 157.226562 258.265625 163.945312 258.765625 C 170.664062 259.269531 177.394531 259.519531 184.132812 259.519531 C 190.871094 259.519531 197.601562 259.269531 204.320312 258.765625 C 211.042969 258.265625 217.734375 257.511719 224.398438 256.511719 C 231.0625 255.511719 237.679688 254.261719 244.25 252.769531 C 250.820312 251.273438 257.328125 249.535156 263.769531 247.558594 C 264.300781 247.40625 264.835938 247.28125 265.378906 247.183594 C 265.921875 247.082031 266.46875 247.011719 267.019531 246.964844 C 267.570312 246.921875 268.121094 246.902344 268.671875 246.910156 C 269.222656 246.921875 269.773438 246.957031 270.324219 247.019531 C 270.871094 247.082031 271.414062 247.171875 271.953125 247.289062 C 272.496094 247.40625 273.027344 247.546875 273.550781 247.714844 C 274.078125 247.886719 274.59375 248.078125 275.101562 248.296875 C 275.605469 248.519531 276.101562 248.761719 276.582031 249.03125 C 277.066406 249.296875 277.535156 249.589844 277.988281 249.902344 C 278.441406 250.214844 278.878906 250.550781 279.300781 250.910156 C 279.722656 251.265625 280.125 251.640625 280.507812 252.039062 C 280.890625 252.433594 281.253906 252.851562 281.597656 253.28125 C 281.941406 253.714844 282.261719 254.160156 282.5625 254.625 C 282.859375 255.089844 283.136719 255.566406 283.390625 256.058594 C 283.640625 256.546875 283.871094 257.050781 284.074219 257.5625 C 284.273438 258.078125 284.453125 258.597656 284.605469 259.128906 C 284.757812 259.660156 284.882812 260.195312 284.980469 260.738281 C 285.078125 261.28125 285.152344 261.828125 285.199219 262.378906 C 285.242188 262.929688 285.261719 263.480469 285.253906 264.03125 C 285.242188 264.582031 285.207031 265.132812 285.144531 265.683594 C 285.082031 266.230469 284.992188 266.773438 284.875 267.3125 C 284.761719 267.855469 284.617188 268.386719 284.449219 268.910156 C 284.28125 269.4375 284.085938 269.953125 283.867188 270.460938 C 283.648438 270.964844 283.40625 271.460938 283.136719 271.941406 C 282.867188 272.425781 282.578125 272.894531 282.265625 273.347656 C 281.949219 273.800781 281.617188 274.238281 281.257812 274.660156 C 280.902344 275.082031 280.523438 275.484375 280.128906 275.867188 C 279.734375 276.253906 279.316406 276.617188 278.886719 276.960938 C 278.453125 277.304688 278.007812 277.625 277.542969 277.925781 C 277.078125 278.222656 276.601562 278.5 276.109375 278.75 C 275.621094 279.003906 275.117188 279.230469 274.605469 279.433594 C 274.09375 279.636719 273.570312 279.816406 273.039062 279.96875 C 258.609375 284.277344 243.949219 287.550781 229.054688 289.789062 C 214.160156 292.023438 199.183594 293.203125 184.125 293.324219 Z M 184.125 293.324219 " fill-opacity="1" fill-rule="nonzero"/><g clip-path="url(#9e2e19566a)"><path fill="#ced3da" d="M 276.824219 339.605469 C 255.113281 339.605469 226.261719 293.351562 226.261719 272.191406 C 226.261719 271.636719 226.289062 271.085938 226.34375 270.539062 C 226.394531 269.988281 226.476562 269.441406 226.585938 268.902344 C 226.691406 268.359375 226.828125 267.824219 226.988281 267.296875 C 227.148438 266.769531 227.332031 266.25 227.542969 265.738281 C 227.753906 265.230469 227.992188 264.730469 228.25 264.246094 C 228.511719 263.757812 228.792969 263.285156 229.101562 262.824219 C 229.40625 262.367188 229.738281 261.925781 230.085938 261.496094 C 230.4375 261.070312 230.808594 260.664062 231.195312 260.273438 C 231.585938 259.882812 231.996094 259.511719 232.421875 259.160156 C 232.847656 258.8125 233.292969 258.484375 233.75 258.175781 C 234.210938 257.871094 234.683594 257.585938 235.171875 257.324219 C 235.65625 257.066406 236.15625 256.828125 236.664062 256.617188 C 237.175781 256.40625 237.695312 256.222656 238.222656 256.0625 C 238.75 255.902344 239.285156 255.765625 239.828125 255.660156 C 240.367188 255.550781 240.914062 255.472656 241.464844 255.417969 C 242.011719 255.363281 242.5625 255.335938 243.113281 255.335938 C 243.667969 255.335938 244.21875 255.363281 244.765625 255.417969 C 245.316406 255.472656 245.863281 255.550781 246.402344 255.660156 C 246.945312 255.765625 247.480469 255.902344 248.007812 256.0625 C 248.535156 256.222656 249.054688 256.40625 249.566406 256.617188 C 250.074219 256.828125 250.574219 257.066406 251.058594 257.324219 C 251.546875 257.585938 252.019531 257.871094 252.480469 258.175781 C 252.9375 258.484375 253.378906 258.8125 253.808594 259.160156 C 254.234375 259.511719 254.640625 259.882812 255.03125 260.273438 C 255.421875 260.664062 255.792969 261.070312 256.144531 261.496094 C 256.492188 261.925781 256.820312 262.367188 257.128906 262.824219 C 257.433594 263.285156 257.71875 263.757812 257.980469 264.246094 C 258.238281 264.730469 258.476562 265.230469 258.6875 265.738281 C 258.898438 266.25 259.082031 266.769531 259.242188 267.296875 C 259.402344 267.824219 259.539062 268.359375 259.644531 268.902344 C 259.753906 269.441406 259.835938 269.988281 259.886719 270.539062 C 259.941406 271.085938 259.96875 271.636719 259.96875 272.191406 C 259.96875 279.21875 272.703125 299.03125 280.109375 305.59375 C 294.496094 303 310.828125 284.140625 320.410156 265.3125 C 329.8125 240.578125 326.199219 175.625 296.484375 89.28125 C 288.691406 84.582031 280.5 80.734375 271.910156 77.734375 C 263.320312 74.734375 254.515625 72.644531 245.492188 71.464844 L 233.484375 101.480469 C 233.277344 101.996094 233.046875 102.496094 232.792969 102.984375 C 232.539062 103.476562 232.261719 103.953125 231.960938 104.414062 C 231.660156 104.878906 231.335938 105.324219 230.992188 105.753906 C 230.644531 106.1875 230.28125 106.597656 229.894531 106.992188 C 229.511719 107.390625 229.105469 107.765625 228.683594 108.121094 C 228.261719 108.476562 227.820312 108.808594 227.367188 109.121094 C 226.910156 109.433594 226.441406 109.722656 225.957031 109.988281 C 225.476562 110.253906 224.980469 110.496094 224.472656 110.714844 C 223.964844 110.929688 223.449219 111.121094 222.921875 111.289062 C 222.394531 111.457031 221.863281 111.597656 221.320312 111.710938 C 220.78125 111.824219 220.238281 111.914062 219.6875 111.972656 C 219.140625 112.035156 218.589844 112.066406 218.039062 112.074219 C 217.484375 112.082031 216.933594 112.0625 216.382812 112.011719 C 215.835938 111.964844 215.289062 111.890625 214.746094 111.789062 C 214.203125 111.6875 213.667969 111.5625 213.136719 111.40625 C 212.605469 111.253906 212.085938 111.074219 211.574219 110.871094 C 211.058594 110.664062 210.558594 110.433594 210.070312 110.179688 C 209.578125 109.925781 209.101562 109.648438 208.640625 109.347656 C 208.175781 109.046875 207.730469 108.722656 207.300781 108.378906 C 206.867188 108.03125 206.457031 107.667969 206.058594 107.28125 C 205.664062 106.898438 205.289062 106.492188 204.933594 106.070312 C 204.578125 105.648438 204.246094 105.207031 203.933594 104.753906 C 203.621094 104.296875 203.332031 103.828125 203.066406 103.34375 C 202.800781 102.863281 202.558594 102.367188 202.339844 101.859375 C 202.125 101.351562 201.929688 100.835938 201.765625 100.308594 C 201.597656 99.78125 201.457031 99.25 201.34375 98.707031 C 201.230469 98.167969 201.140625 97.625 201.082031 97.074219 C 201.019531 96.527344 200.984375 95.976562 200.980469 95.425781 C 200.972656 94.871094 200.992188 94.320312 201.039062 93.769531 C 201.089844 93.222656 201.164062 92.675781 201.261719 92.132812 C 201.363281 91.589844 201.492188 91.054688 201.644531 90.523438 C 201.800781 89.992188 201.980469 89.472656 202.183594 88.960938 L 219.039062 46.824219 C 219.378906 45.976562 219.78125 45.160156 220.253906 44.378906 C 220.726562 43.597656 221.257812 42.859375 221.847656 42.164062 C 222.4375 41.46875 223.082031 40.828125 223.777344 40.238281 C 224.472656 39.644531 225.210938 39.113281 225.992188 38.644531 C 226.773438 38.171875 227.589844 37.769531 228.4375 37.429688 C 229.285156 37.09375 230.152344 36.824219 231.042969 36.628906 C 231.933594 36.429688 232.835938 36.304688 233.746094 36.253906 C 234.65625 36.203125 235.566406 36.226562 236.472656 36.324219 C 243.914062 36.808594 251.289062 37.773438 258.601562 39.21875 C 265.914062 40.660156 273.101562 42.574219 280.164062 44.957031 C 287.226562 47.335938 294.105469 50.167969 300.800781 53.445312 C 307.496094 56.722656 313.949219 60.417969 320.164062 64.539062 C 321.613281 65.542969 322.871094 66.75 323.941406 68.152344 C 325.011719 69.554688 325.839844 71.089844 326.425781 72.753906 C 356.980469 159.34375 366.808594 240.082031 351.460938 278.453125 C 351.285156 278.882812 351.089844 279.292969 350.890625 279.730469 C 336.402344 308.679688 309.335938 339.605469 276.824219 339.605469 Z M 282.023438 307.0625 Z M 282.023438 307.0625 " fill-opacity="1" fill-rule="nonzero"/></g><g clip-path="url(#ddc8fbabbc)"><path fill="#ced3da" d="M 94.257812 339.605469 C 62.773438 339.605469 36.726562 308.527344 22.863281 279.4375 C 22.671875 279.03125 22.492188 278.59375 22.332031 278.191406 C 7.769531 239.972656 17.132812 159.433594 46.171875 73 C 46.726562 71.347656 47.519531 69.820312 48.546875 68.414062 C 49.578125 67.007812 50.792969 65.792969 52.199219 64.765625 C 58.023438 60.636719 64.101562 56.925781 70.429688 53.632812 C 76.761719 50.335938 83.289062 47.488281 90.007812 45.085938 C 96.730469 42.683594 103.582031 40.746094 110.566406 39.28125 C 117.554688 37.816406 124.605469 36.832031 131.726562 36.332031 C 132.632812 36.230469 133.546875 36.207031 134.460938 36.253906 C 135.371094 36.304688 136.277344 36.425781 137.167969 36.621094 C 138.0625 36.816406 138.933594 37.082031 139.785156 37.421875 C 140.632812 37.757812 141.449219 38.164062 142.234375 38.632812 C 143.019531 39.105469 143.761719 39.632812 144.457031 40.226562 C 145.15625 40.816406 145.800781 41.460938 146.394531 42.15625 C 146.988281 42.851562 147.519531 43.59375 147.992188 44.375 C 148.464844 45.160156 148.871094 45.972656 149.210938 46.824219 L 166.066406 88.960938 C 166.269531 89.472656 166.449219 89.992188 166.605469 90.523438 C 166.757812 91.054688 166.886719 91.589844 166.988281 92.132812 C 167.089844 92.675781 167.164062 93.222656 167.210938 93.769531 C 167.257812 94.320312 167.277344 94.871094 167.269531 95.425781 C 167.265625 95.976562 167.230469 96.527344 167.167969 97.074219 C 167.109375 97.625 167.019531 98.167969 166.90625 98.707031 C 166.792969 99.25 166.652344 99.78125 166.484375 100.308594 C 166.320312 100.835938 166.128906 101.351562 165.910156 101.859375 C 165.691406 102.367188 165.449219 102.863281 165.183594 103.34375 C 164.917969 103.828125 164.628906 104.296875 164.316406 104.753906 C 164.003906 105.207031 163.671875 105.648438 163.316406 106.070312 C 162.960938 106.492188 162.585938 106.898438 162.191406 107.28125 C 161.796875 107.667969 161.382812 108.03125 160.953125 108.378906 C 160.519531 108.722656 160.074219 109.046875 159.609375 109.347656 C 159.148438 109.648438 158.671875 109.925781 158.183594 110.179688 C 157.691406 110.433594 157.191406 110.664062 156.679688 110.871094 C 156.164062 111.074219 155.644531 111.253906 155.113281 111.40625 C 154.582031 111.5625 154.046875 111.6875 153.503906 111.789062 C 152.960938 111.890625 152.414062 111.964844 151.867188 112.011719 C 151.316406 112.0625 150.765625 112.082031 150.210938 112.074219 C 149.660156 112.066406 149.109375 112.035156 148.5625 111.972656 C 148.011719 111.914062 147.46875 111.824219 146.929688 111.710938 C 146.386719 111.597656 145.855469 111.457031 145.328125 111.289062 C 144.804688 111.121094 144.285156 110.929688 143.777344 110.714844 C 143.269531 110.496094 142.777344 110.253906 142.292969 109.988281 C 141.808594 109.722656 141.339844 109.433594 140.882812 109.121094 C 140.429688 108.808594 139.988281 108.476562 139.566406 108.121094 C 139.144531 107.765625 138.742188 107.390625 138.355469 106.992188 C 137.96875 106.597656 137.605469 106.1875 137.257812 105.753906 C 136.914062 105.324219 136.589844 104.878906 136.289062 104.414062 C 135.988281 103.953125 135.710938 103.476562 135.457031 102.984375 C 135.203125 102.496094 134.972656 101.996094 134.769531 101.480469 L 122.792969 71.539062 C 114.519531 72.738281 106.46875 74.808594 98.644531 77.75 C 90.816406 80.695312 83.398438 84.441406 76.382812 88.992188 C 48.019531 175.554688 44.597656 240.75 53.632812 265.589844 C 62.53125 283.960938 77.429688 302.367188 90.558594 305.441406 C 94.808594 300.695312 98.429688 295.507812 101.425781 289.886719 C 104.425781 284.261719 106.707031 278.363281 108.28125 272.191406 C 108.28125 271.636719 108.308594 271.085938 108.363281 270.539062 C 108.417969 269.988281 108.496094 269.441406 108.605469 268.902344 C 108.710938 268.359375 108.847656 267.824219 109.007812 267.296875 C 109.167969 266.769531 109.351562 266.25 109.5625 265.738281 C 109.777344 265.230469 110.011719 264.730469 110.269531 264.246094 C 110.53125 263.757812 110.816406 263.285156 111.121094 262.824219 C 111.429688 262.367188 111.757812 261.925781 112.105469 261.496094 C 112.457031 261.070312 112.828125 260.664062 113.21875 260.273438 C 113.609375 259.882812 114.015625 259.511719 114.441406 259.160156 C 114.871094 258.8125 115.3125 258.484375 115.773438 258.175781 C 116.230469 257.871094 116.703125 257.585938 117.191406 257.324219 C 117.675781 257.066406 118.175781 256.828125 118.6875 256.617188 C 119.195312 256.40625 119.714844 256.222656 120.242188 256.0625 C 120.769531 255.902344 121.304688 255.765625 121.847656 255.660156 C 122.390625 255.550781 122.933594 255.472656 123.484375 255.417969 C 124.03125 255.363281 124.582031 255.335938 125.136719 255.335938 C 125.6875 255.335938 126.238281 255.363281 126.789062 255.417969 C 127.335938 255.472656 127.882812 255.550781 128.421875 255.660156 C 128.964844 255.765625 129.5 255.902344 130.027344 256.0625 C 130.554688 256.222656 131.074219 256.40625 131.585938 256.617188 C 132.09375 256.828125 132.59375 257.066406 133.082031 257.324219 C 133.566406 257.585938 134.039062 257.871094 134.5 258.175781 C 134.957031 258.484375 135.402344 258.8125 135.828125 259.160156 C 136.253906 259.511719 136.664062 259.882812 137.054688 260.273438 C 137.445312 260.664062 137.8125 261.070312 138.164062 261.496094 C 138.515625 261.925781 138.84375 262.367188 139.148438 262.824219 C 139.457031 263.285156 139.738281 263.757812 140 264.246094 C 140.257812 264.730469 140.496094 265.230469 140.707031 265.738281 C 140.917969 266.25 141.105469 266.769531 141.265625 267.296875 C 141.425781 267.824219 141.558594 268.359375 141.664062 268.902344 C 141.773438 269.441406 141.855469 269.988281 141.910156 270.539062 C 141.960938 271.085938 141.988281 271.636719 141.988281 272.191406 C 141.25 279.5 139.601562 286.597656 137.050781 293.484375 C 134.496094 300.371094 131.117188 306.828125 126.914062 312.851562 C 109.855469 339.605469 98.523438 339.605469 94.257812 339.605469 Z M 94.257812 339.605469 " fill-opacity="1" fill-rule="nonzero"/></g></svg>