<svg xmlns="http://www.w3.org/2000/svg" xmlns:xlink="http://www.w3.org/1999/xlink" width="500" zoomAndPan="magnify" viewBox="0 0 375 374.999991" height="500" preserveAspectRatio="xMidYMid meet" version="1.0"><defs><clipPath id="af6d1849b2"><path d="M 58.433594 31.6875 L 342.34375 31.6875 L 342.34375 316 L 58.433594 316 Z M 58.433594 31.6875 " clip-rule="nonzero"/></clipPath><clipPath id="227c2de6bd"><path d="M 76 287.375 L 132.519531 287.375 L 132.519531 343.257812 L 76 343.257812 Z M 76 287.375 " clip-rule="nonzero"/></clipPath></defs><g clip-path="url(#af6d1849b2)"><path fill="#ffffff" d="M 198.761719 236.328125 C 211.167969 229.980469 224.386719 221.996094 237.652344 212.914062 C 242.917969 241.871094 234.773438 272.8125 213.175781 295.601562 C 212.902344 274.84375 207.925781 254.617188 198.761719 236.328125 Z M 151.101562 246.984375 C 139.875 258.214844 122.132812 260.507812 113.15625 260.917969 C 113.546875 251.957031 115.820312 234.261719 127.101562 222.980469 C 132.125 217.953125 137.382812 213.972656 142.402344 211.050781 L 163.03125 231.679688 C 160.109375 236.703125 156.128906 241.957031 151.101562 246.984375 Z M 78.480469 160.90625 C 101.277344 139.308594 132.214844 131.167969 161.167969 136.433594 C 152.089844 149.699219 144.105469 162.914062 137.757812 175.320312 C 119.464844 166.15625 99.242188 161.179688 78.480469 160.90625 Z M 328.328125 45.773438 C 330.097656 53.707031 333.535156 76.035156 324.375 102.765625 L 271.320312 49.710938 C 297.949219 40.613281 320.382812 44.027344 328.328125 45.773438 Z M 182.148438 231.078125 C 181.480469 231.375 180.808594 231.671875 180.152344 231.957031 L 177.546875 229.355469 L 142.128906 193.933594 C 142.410156 193.273438 142.710938 192.605469 143.007812 191.9375 C 144.5625 188.421875 146.28125 184.8125 148.160156 181.121094 C 154.875 167.921875 163.550781 153.722656 173.480469 139.53125 C 175.84375 136.15625 178.269531 132.78125 180.761719 129.421875 C 193.367188 112.433594 207.539062 95.808594 222.054688 81.289062 C 233.496094 69.84375 246.027344 60.875 259.34375 54.578125 L 319.507812 114.742188 C 313.210938 128.058594 304.238281 140.585938 292.796875 152.03125 C 278.28125 166.542969 261.648438 180.71875 244.664062 193.324219 C 241.304688 195.816406 237.929688 198.242188 234.554688 200.605469 C 220.359375 210.53125 206.167969 219.210938 192.964844 225.925781 C 189.273438 227.800781 185.660156 229.523438 182.148438 231.078125 Z M 248.265625 205.417969 C 266.964844 191.820312 285.339844 176.328125 301.21875 160.453125 C 314.773438 146.898438 325.160156 131.871094 332.097656 115.800781 C 349.863281 74.628906 339.347656 40.492188 338.890625 39.058594 C 338.304688 37.21875 336.867188 35.78125 335.023438 35.195312 C 333.589844 34.738281 299.457031 24.222656 258.28125 41.988281 C 242.210938 48.921875 227.1875 59.3125 213.632812 72.871094 C 197.757812 88.746094 182.265625 107.117188 168.667969 125.816406 C 133.710938 117.605469 95.402344 127.09375 68.199219 154.296875 C 65.335938 157.164062 62.527344 160.332031 59.847656 163.722656 C 58.371094 165.59375 58.148438 168.160156 59.285156 170.257812 C 60.421875 172.347656 62.695312 173.5625 65.066406 173.34375 C 88.671875 171.160156 111.976562 175.695312 132.585938 186.058594 C 131.507812 188.449219 130.503906 190.800781 129.574219 193.101562 C 128.683594 195.316406 129.199219 197.847656 130.886719 199.535156 L 133.695312 202.34375 C 128.625 205.605469 123.550781 209.6875 118.679688 214.558594 C 99.375 233.863281 101.160156 265.914062 101.246094 267.269531 C 101.339844 268.769531 101.980469 270.113281 102.976562 271.105469 C 103.972656 272.101562 105.316406 272.746094 106.8125 272.839844 C 108.167969 272.921875 140.222656 274.710938 159.527344 255.402344 C 164.394531 250.539062 168.480469 245.457031 171.742188 240.390625 L 174.546875 243.195312 C 176.234375 244.886719 178.769531 245.402344 180.980469 244.507812 C 183.28125 243.585938 185.632812 242.574219 188.027344 241.5 C 198.390625 262.105469 202.921875 285.414062 200.742188 309.015625 C 200.574219 310.808594 201.226562 312.546875 202.457031 313.777344 C 202.855469 314.175781 203.316406 314.523438 203.828125 314.800781 C 205.921875 315.933594 208.492188 315.714844 210.363281 314.238281 C 213.75 311.558594 216.921875 308.746094 219.785156 305.882812 C 246.988281 278.683594 256.480469 240.375 248.265625 205.417969 " fill-opacity="1" fill-rule="nonzero"/></g><path fill="#ffffff" d="M 233.28125 140.800781 C 226.164062 133.683594 226.164062 122.097656 233.28125 114.976562 C 240.402344 107.855469 251.988281 107.855469 259.109375 114.976562 C 266.226562 122.097656 266.226562 133.683594 259.109375 140.800781 C 251.988281 147.921875 240.402344 147.921875 233.28125 140.800781 Z M 267.53125 106.554688 C 255.765625 94.789062 236.625 94.789062 224.859375 106.554688 C 213.097656 118.320312 213.097656 137.460938 224.859375 149.222656 C 236.625 160.984375 255.765625 160.984375 267.53125 149.222656 C 279.292969 137.460938 279.292969 118.320312 267.53125 106.554688 " fill-opacity="1" fill-rule="nonzero"/><path fill="#ffffff" d="M 90.117188 283.964844 C 87.789062 281.640625 84.019531 281.640625 81.695312 283.964844 L 37.90625 327.757812 C 35.578125 330.082031 35.578125 333.851562 37.90625 336.179688 C 40.230469 338.503906 44 338.503906 46.324219 336.179688 L 90.117188 292.386719 C 92.441406 290.0625 92.441406 286.292969 90.117188 283.964844 " fill-opacity="1" fill-rule="nonzero"/><path fill="#ffffff" d="M 105.273438 191.332031 C 102.953125 189.003906 99.179688 189.003906 96.855469 191.332031 L 53.0625 235.121094 C 50.738281 237.445312 50.738281 241.21875 53.0625 243.542969 C 55.386719 245.867188 59.15625 245.871094 61.484375 243.542969 L 105.273438 199.75 C 107.601562 197.429688 107.601562 193.65625 105.273438 191.332031 " fill-opacity="1" fill-rule="nonzero"/><path fill="#ffffff" d="M 87.09375 246.132812 C 84.769531 243.808594 80.996094 243.808594 78.671875 246.132812 L 34.878906 289.925781 C 32.554688 292.25 32.554688 296.023438 34.878906 298.34375 C 37.207031 300.671875 40.976562 300.671875 43.300781 298.34375 L 87.09375 254.554688 C 89.417969 252.226562 89.417969 248.457031 87.09375 246.132812 " fill-opacity="1" fill-rule="nonzero"/><path fill="#ffffff" d="M 185.0625 271.117188 C 182.734375 268.789062 178.964844 268.789062 176.640625 271.117188 L 132.847656 314.90625 C 130.523438 317.234375 130.523438 321.007812 132.847656 323.328125 C 135.175781 325.65625 138.945312 325.65625 141.269531 323.328125 L 185.0625 279.539062 C 187.386719 277.214844 187.386719 273.441406 185.0625 271.117188 " fill-opacity="1" fill-rule="nonzero"/><g clip-path="url(#227c2de6bd)"><path fill="#ffffff" d="M 130.257812 289.300781 C 127.9375 286.972656 124.164062 286.972656 121.835938 289.300781 L 78.046875 333.089844 C 75.71875 335.417969 75.71875 339.1875 78.046875 341.511719 C 80.371094 343.839844 84.144531 343.839844 86.472656 341.511719 L 130.257812 297.722656 C 132.585938 295.398438 132.585938 291.625 130.257812 289.300781 " fill-opacity="1" fill-rule="nonzero"/></g></svg>